<svg width="78" height="92" viewBox="0 0 78 92" fill="none" xmlns="http://www.w3.org/2000/svg">
<g filter="url(#filter0_d_87_435)">
<path d="M31 61C31 59.4231 32.069 58.1465 33.641 56.9803" stroke="currentColor" stroke-width="2" stroke-miterlimit="10" stroke-linecap="round" stroke-linejoin="round"/>
<path d="M38.6271 53.9991C42.4407 51.8836 46.2542 49.8135 46.2542 46C46.2542 38.3729 31 36.9572 31 31" stroke="currentColor" stroke-width="2" stroke-miterlimit="10" stroke-linecap="round" stroke-linejoin="round"/>
<path d="M46.2542 61C46.2542 55.0428 31 53.6271 31 46C31 42.1864 34.8136 40.1164 38.6271 38.0009" stroke="currentColor" stroke-width="2" stroke-miterlimit="10" stroke-linecap="round" stroke-linejoin="round"/>
<path d="M43.6133 35.0197C45.1853 33.8536 46.2543 32.577 46.2543 31" stroke="currentColor" stroke-width="2" stroke-miterlimit="10" stroke-linecap="round" stroke-linejoin="round"/>
<path d="M45.6294 48.5424H31.6249" stroke="currentColor" stroke-width="2" stroke-miterlimit="10" stroke-linecap="round" stroke-linejoin="round"/>
<path d="M31.6249 43.4576H45.6294" stroke="currentColor" stroke-width="2" stroke-miterlimit="10" stroke-linecap="round" stroke-linejoin="round"/>
<path d="M45.2328 58.4576H38.3776" stroke="currentColor" stroke-width="2" stroke-miterlimit="10" stroke-linecap="round" stroke-linejoin="round"/>
<path d="M32.0216 33.5424H39.8984" stroke="currentColor" stroke-width="2" stroke-miterlimit="10" stroke-linecap="round" stroke-linejoin="round"/>
</g>
<defs>
<filter id="filter0_d_87_435" x="0" y="0" width="77.2543" height="92" filterUnits="userSpaceOnUse" color-interpolation-filters="sRGB">
<feFlood flood-opacity="0" result="BackgroundImageFix"/>
<feColorMatrix in="SourceAlpha" type="matrix" values="0 0 0 0 0 0 0 0 0 0 0 0 0 0 0 0 0 0 127 0" result="hardAlpha"/>
<feOffset/>
<feGaussianBlur stdDeviation="15"/>
<feComposite in2="hardAlpha" operator="out"/>
<feColorMatrix type="matrix" values="0 0 0 0 1 0 0 0 0 0.5418 0 0 0 0 0.21 0 0 0 0.5 0"/>
<feBlend mode="normal" in2="BackgroundImageFix" result="effect1_dropShadow_87_435"/>
<feBlend mode="normal" in="SourceGraphic" in2="effect1_dropShadow_87_435" result="shape"/>
</filter>
</defs>
</svg>
