<svg width="38" height="42" viewBox="0 0 38 42" fill="none" xmlns="http://www.w3.org/2000/svg">
<path d="M6.11382 29.1487L5.20985 38.2247C5.13652 38.9313 5.36718 39.6387 5.84316 40.166C6.32114 40.696 7.00512 41 7.71976 41H23.1859C24.1545 41 24.9678 40.2413 25.0371 39.2733C25.0771 38.7213 25.1498 38.2193 25.2511 37.786C26.2491 38.2513 28.0924 39 29.621 39C31.4722 39 32.9782 37.5047 32.9782 35.6667V33.6667C32.9782 33.3193 33.1102 33.0067 33.3855 32.708C33.7288 32.3293 33.8428 31.7907 33.6815 31.3033C33.6788 31.296 33.6768 31.2893 33.6742 31.2827C33.7582 31.232 33.8408 31.1767 33.9222 31.116C34.2835 30.848 34.5128 30.4513 34.5675 30C34.6248 29.5327 34.4828 29.0533 34.1795 28.684C33.9468 28.4007 33.7895 28.0607 33.7088 27.6673H34.8875C35.6634 27.6673 36.3514 27.2633 36.7294 26.5853C37.1067 25.908 37.0887 25.11 36.6801 24.4493L34.1348 20.3587C33.8235 19.8233 33.6608 19.0607 33.7108 18.3667C33.7622 17.6173 33.8668 16.9873 34.0201 16.4987C34.2428 15.8067 34.2941 15.052 34.1695 14.3193C32.8969 6.60133 26.2358 1 18.3327 1C7.96575 1 1 7.966 1 18.3333C1 22.562 2.85927 26.4827 6.11382 29.1487ZM18.3327 2.33333C25.5805 2.33333 31.6876 7.46467 32.8549 14.5387C32.9442 15.0647 32.9082 15.6007 32.7495 16.094C32.5642 16.6873 32.4395 17.4207 32.3809 18.272C32.3115 19.232 32.5362 20.2627 32.9929 21.0453L35.5474 25.1513C35.7634 25.5 35.6321 25.816 35.5648 25.9353C35.4981 26.0553 35.2994 26.3333 34.8875 26.3333H32.9782C32.6095 26.3333 32.3115 26.6313 32.3115 27C32.3115 28.248 32.7675 29.0653 33.1502 29.53C33.2228 29.6193 33.2575 29.7313 33.2448 29.838C33.2375 29.8987 33.2108 29.9833 33.1275 30.046C32.8695 30.2373 32.6069 30.332 32.3222 30.334C32.3149 30.3327 32.3115 30.334 32.3115 30.334C31.9489 30.334 31.6596 30.6247 31.6522 30.9867C31.6509 31.0507 31.6596 31.112 31.6749 31.1707C31.7476 31.4533 31.9962 31.6613 32.3002 31.6667C32.3142 31.6667 32.3455 31.672 32.4162 31.72C32.4242 31.744 32.4275 31.78 32.4015 31.8087C31.9076 32.3467 31.6456 32.9893 31.6456 33.6667V35.6667C31.6456 36.7693 30.7376 37.6667 29.6216 37.6667C27.7917 37.6667 25.1898 36.268 25.1631 36.254C22.2359 34.6753 18.7527 31.424 18.718 31.3913C18.4487 31.1393 18.0274 31.1533 17.7754 31.422C17.5234 31.69 17.5374 32.112 17.8054 32.364C17.9454 32.4947 21.0893 35.428 24.0398 37.15C23.8752 37.7287 23.7639 38.408 23.7085 39.178C23.6885 39.4527 23.4592 39.6673 23.1865 39.6673H7.71976C7.3771 39.6673 7.06245 39.5273 6.83312 39.274C6.60647 39.0227 6.50114 38.6993 6.53647 38.36L7.47643 28.92C7.4991 28.692 7.4031 28.468 7.22178 28.3273C4.11456 25.9147 2.33329 22.272 2.33329 18.334C2.33329 8.76333 8.76306 2.33333 18.3327 2.33333Z" fill="currentColor"/>
<path d="M14.3329 27.6667C15.4355 27.6667 16.3328 26.7693 16.3328 25.6667C16.3328 25.298 16.0341 25 15.6661 25C15.2982 25 14.9995 25.298 14.9995 25.6667C14.9995 26.0353 14.7002 26.3333 14.3329 26.3333C12.0649 26.3333 9.66636 22.564 9.66636 19C9.66636 17.5293 10.8623 16.3333 12.3329 16.3333C13.8035 16.3333 14.9995 17.5293 14.9995 19C14.9995 19.368 15.2982 19.6667 15.6661 19.6667C16.0341 19.6667 16.3328 19.368 16.3328 19C16.3328 16.794 14.5388 15 12.3329 15C10.127 15 8.33307 16.794 8.33307 19C8.33307 23.374 11.305 27.6667 14.3329 27.6667Z" fill="currentColor"/>
<path d="M6.11382 29.1487L5.20985 38.2247C5.13652 38.9313 5.36718 39.6387 5.84316 40.166C6.32114 40.696 7.00512 41 7.71976 41H23.1859C24.1545 41 24.9678 40.2413 25.0371 39.2733C25.0771 38.7213 25.1498 38.2193 25.2511 37.786C26.2491 38.2513 28.0924 39 29.621 39C31.4722 39 32.9782 37.5047 32.9782 35.6667V33.6667C32.9782 33.3193 33.1102 33.0067 33.3855 32.708C33.7288 32.3293 33.8428 31.7907 33.6815 31.3033C33.6788 31.296 33.6768 31.2893 33.6742 31.2827C33.7582 31.232 33.8408 31.1767 33.9222 31.116C34.2835 30.848 34.5128 30.4513 34.5675 30C34.6248 29.5327 34.4828 29.0533 34.1795 28.684C33.9468 28.4007 33.7895 28.0607 33.7088 27.6673H34.8875C35.6634 27.6673 36.3514 27.2633 36.7294 26.5853C37.1067 25.908 37.0887 25.11 36.6801 24.4493L34.1348 20.3587C33.8235 19.8233 33.6608 19.0607 33.7108 18.3667C33.7622 17.6173 33.8668 16.9873 34.0201 16.4987C34.2428 15.8067 34.2941 15.052 34.1695 14.3193C32.8969 6.60133 26.2358 1 18.3327 1C7.96575 1 1 7.966 1 18.3333C1 22.562 2.85927 26.4827 6.11382 29.1487ZM18.3327 2.33333C25.5805 2.33333 31.6876 7.46467 32.8549 14.5387C32.9442 15.0647 32.9082 15.6007 32.7495 16.094C32.5642 16.6873 32.4395 17.4207 32.3809 18.272C32.3115 19.232 32.5362 20.2627 32.9929 21.0453L35.5474 25.1513C35.7634 25.5 35.6321 25.816 35.5648 25.9353C35.4981 26.0553 35.2994 26.3333 34.8875 26.3333H32.9782C32.6095 26.3333 32.3115 26.6313 32.3115 27C32.3115 28.248 32.7675 29.0653 33.1502 29.53C33.2228 29.6193 33.2575 29.7313 33.2448 29.838C33.2375 29.8987 33.2108 29.9833 33.1275 30.046C32.8695 30.2373 32.6069 30.332 32.3222 30.334C32.3149 30.3327 32.3115 30.334 32.3115 30.334C31.9489 30.334 31.6596 30.6247 31.6522 30.9867C31.6509 31.0507 31.6596 31.112 31.6749 31.1707C31.7476 31.4533 31.9962 31.6613 32.3002 31.6667C32.3142 31.6667 32.3455 31.672 32.4162 31.72C32.4242 31.744 32.4275 31.78 32.4015 31.8087C31.9076 32.3467 31.6456 32.9893 31.6456 33.6667V35.6667C31.6456 36.7693 30.7376 37.6667 29.6216 37.6667C27.7917 37.6667 25.1898 36.268 25.1631 36.254C22.2359 34.6753 18.7527 31.424 18.718 31.3913C18.4487 31.1393 18.0274 31.1533 17.7754 31.422C17.5234 31.69 17.5374 32.112 17.8054 32.364C17.9454 32.4947 21.0893 35.428 24.0398 37.15C23.8752 37.7287 23.7639 38.408 23.7085 39.178C23.6885 39.4527 23.4592 39.6673 23.1865 39.6673H7.71976C7.3771 39.6673 7.06245 39.5273 6.83312 39.274C6.60647 39.0227 6.50114 38.6993 6.53647 38.36L7.47643 28.92C7.4991 28.692 7.4031 28.468 7.22178 28.3273C4.11456 25.9147 2.33329 22.272 2.33329 18.334C2.33329 8.76333 8.76306 2.33333 18.3327 2.33333Z" stroke="currentColor" stroke-width="0.8" mask="url(#path-1-outside-1_92_398)"/>
<path d="M14.3329 27.6667C15.4355 27.6667 16.3328 26.7693 16.3328 25.6667C16.3328 25.298 16.0341 25 15.6661 25C15.2982 25 14.9995 25.298 14.9995 25.6667C14.9995 26.0353 14.7002 26.3333 14.3329 26.3333C12.0649 26.3333 9.66636 22.564 9.66636 19C9.66636 17.5293 10.8623 16.3333 12.3329 16.3333C13.8035 16.3333 14.9995 17.5293 14.9995 19C14.9995 19.368 15.2982 19.6667 15.6661 19.6667C16.0341 19.6667 16.3328 19.368 16.3328 19C16.3328 16.794 14.5388 15 12.3329 15C10.127 15 8.33307 16.794 8.33307 19C8.33307 23.374 11.305 27.6667 14.3329 27.6667Z" stroke="currentColor" stroke-width="0.8" mask="url(#path-1-outside-1_92_398)"/>
</svg>
