<svg width="34" height="33" viewBox="0 0 34 33" fill="none" xmlns="http://www.w3.org/2000/svg">
<path d="M13.0239 13.2919C11.1552 13.2919 9.39837 14.0081 8.07707 15.3085C6.7557 16.6089 6.02795 18.3378 6.02795 20.1769C6.02795 22.016 6.75563 23.7449 8.07707 25.0453C9.39837 26.3457 11.1553 27.0618 13.024 27.0618C14.8927 27.0618 16.6495 26.3457 17.9708 25.0453C19.2922 23.7449 20.02 22.0159 20.02 20.1769C20.02 18.3379 19.2922 16.6089 17.9708 15.3085C16.6495 14.0081 14.8926 13.2919 13.0239 13.2919ZM16.6103 23.7064C15.6524 24.6492 14.3787 25.1684 13.0239 25.1684C11.6692 25.1684 10.3955 24.6492 9.43747 23.7064C8.47946 22.7636 7.95188 21.5102 7.95188 20.1769C7.95188 18.8437 8.47946 17.5902 9.43747 16.6474C10.3954 15.7047 11.6691 15.1854 13.0239 15.1854C14.3786 15.1854 15.6523 15.7046 16.6102 16.6474C17.5683 17.5902 18.0958 18.8437 18.0958 20.1769C18.096 21.5102 17.5683 22.7636 16.6103 23.7064Z" fill="currentColor"/>
<path d="M31.59 0L24.4151 6.76232e-05C23.8838 6.76232e-05 23.4531 0.423998 23.4531 0.946793C23.4531 1.46966 23.8838 1.89352 24.4151 1.89352L30.2416 1.89345L21.5325 10.4645C19.1678 8.45189 16.1816 7.35376 13.0238 7.35376C9.54342 7.35376 6.27126 8.68762 3.81027 11.1095C-1.27009 16.1093 -1.27009 24.2445 3.81027 29.2442C6.27126 31.6662 9.54342 33 13.0238 33C16.5043 33 19.7764 31.6661 22.2374 29.2442C24.6984 26.8222 26.0538 23.6021 26.0538 20.1769C26.0537 17.0692 24.938 14.1304 22.893 11.8033L31.6022 3.23219L31.6022 8.96637C31.6022 9.48923 32.0329 9.91316 32.5641 9.91316H32.5642C33.0955 9.91316 33.5262 9.4893 33.5262 8.96643L33.5263 1.90556C33.5262 0.854825 32.6576 0 31.59 0ZM20.8769 27.9054C18.7793 29.9697 15.9903 31.1066 13.0238 31.1066C10.0573 31.1066 7.2683 29.9697 5.17067 27.9054C0.840457 23.6439 0.840457 16.71 5.17067 12.4484C7.2683 10.3841 10.0573 9.24721 13.0238 9.24721C15.9903 9.24721 18.7793 10.3842 20.8769 12.4485C22.9745 14.5128 24.1297 17.2575 24.1298 20.1769C24.1298 23.0964 22.9745 25.8411 20.8769 27.9054Z" fill="currentColor"/>
</svg>
