<svg width="41" height="29" viewBox="0 0 41 29" fill="none" xmlns="http://www.w3.org/2000/svg">
<path d="M38.9217 2.00272C38.8453 1.85907 38.7177 1.74999 38.5647 1.6975C38.4117 1.64501 38.2447 1.65302 38.0973 1.71992C37.9499 1.78682 37.8332 1.90761 37.7707 2.05793C37.7082 2.20824 37.7046 2.37688 37.7605 2.52979C37.9407 3.02265 37.6694 4.22171 36.9783 5.22251C36.3875 6.07693 35.6516 6.56684 34.9584 6.56684C33.5445 6.56684 32.3619 5.52227 30.9929 4.31329C29.102 2.64308 26.9606 0.751077 23.5232 1.0273C22.3748 1.13427 21.3024 1.65239 20.5 2.48786C19.6976 1.65239 18.6252 1.13427 17.4768 1.0273C14.0416 0.749606 11.8973 2.64308 10.0071 4.31329C8.63815 5.52227 7.45441 6.56684 6.04165 6.56684C5.34876 6.56684 4.61248 6.07693 4.0217 5.22251C3.33064 4.22244 3.05932 3.02265 3.23947 2.52979C3.29544 2.37688 3.29181 2.20824 3.2293 2.05793C3.1668 1.90761 3.05008 1.78682 2.9027 1.71992C2.75533 1.65302 2.58828 1.64501 2.43527 1.6975C2.28227 1.74999 2.15471 1.85907 2.07834 2.00272C0.713718 4.56965 0.640054 7.47533 1.88141 9.77412C3.25078 12.3079 5.99825 13.8671 9.62205 14.165C12.6339 14.4133 17.8546 14.3022 20.5 11.0817C22.6246 13.6685 26.4107 14.2489 29.3792 14.2489C30.1085 14.2489 30.785 14.2121 31.378 14.165C35.0017 13.8671 37.7507 12.3079 39.1186 9.77412C40.3599 7.47533 40.2863 4.56965 38.9217 2.00272ZM37.9976 9.15878C36.8423 11.2983 34.4547 12.6206 31.274 12.8821C28.3322 13.1245 23.0907 13.0248 21.0448 9.64135C20.9879 9.54713 20.9078 9.46928 20.8124 9.41526C20.717 9.36124 20.6094 9.33286 20.5 9.33286C20.3906 9.33286 20.283 9.36124 20.1876 9.41526C20.0922 9.46928 20.0122 9.54713 19.9552 9.64135C17.9093 13.0252 12.6667 13.1241 9.72598 12.8821C6.54527 12.6206 4.15773 11.2983 3.00243 9.15878C2.3238 7.85993 2.10828 6.36533 2.39196 4.92532C2.55468 5.28712 2.75 5.63308 2.97545 5.95886C3.8204 7.18108 4.90823 7.85417 6.04238 7.85417C7.93615 7.85417 9.35073 6.60363 10.8485 5.28173C12.6325 3.70604 14.477 2.07445 17.3762 2.31058C17.8956 2.3655 18.3973 2.53174 18.8478 2.79816C19.2984 3.06458 19.6872 3.42503 19.9884 3.85537C20.0503 3.93224 20.1285 3.99421 20.2172 4.03677C20.3059 4.07934 20.4029 4.10142 20.5011 4.10142C20.5993 4.10142 20.6963 4.07934 20.785 4.03677C20.8737 3.99421 20.9519 3.93224 21.0138 3.85537C21.315 3.42503 21.7038 3.06458 22.1543 2.79816C22.6049 2.53174 23.1066 2.3655 23.626 2.31058C26.5183 2.07592 28.369 3.70567 30.1537 5.28173C31.6515 6.60583 33.066 7.85417 34.9598 7.85417C36.0929 7.85417 37.1818 7.18108 38.0267 5.95886C38.2522 5.63308 38.4475 5.28712 38.6102 4.92532C38.8932 6.36558 38.6769 7.86019 37.9976 9.15878Z" fill="currentColor"/>
<path d="M24.634 18.966C24.5499 18.9009 24.451 18.858 24.3463 18.8411C24.2417 18.8242 24.1345 18.8339 24.0345 18.8693C22.8935 19.2615 21.7039 19.4915 20.5 19.5526C19.2961 19.4915 18.1065 19.2615 16.9656 18.8693C16.8656 18.834 16.7585 18.8243 16.6539 18.8411C16.5493 18.858 16.4505 18.9008 16.3664 18.9657C16.2823 19.0307 16.2155 19.1157 16.1721 19.2132C16.1287 19.3106 16.11 19.4174 16.1177 19.524C16.1283 19.6674 16.381 23.0549 16.9455 24.4985C16.9824 24.5928 17.0409 24.677 17.1161 24.7442C17.1914 24.8114 17.2814 24.8597 17.3786 24.8852C17.4759 24.9107 17.5778 24.9126 17.676 24.8909C17.7742 24.8692 17.8659 24.8243 17.9436 24.7601L18.2955 24.4691C18.6998 25.6353 19.2692 26.7362 19.9862 27.7378C20.0454 27.8191 20.1228 27.8852 20.2121 27.9307C20.3013 27.9763 20.4 28 20.5 28C20.6 28 20.6987 27.9763 20.7879 27.9307C20.8772 27.8852 20.9546 27.8191 21.0138 27.7378C21.7309 26.7359 22.3003 25.6345 22.7045 24.468L23.0564 24.759C23.1341 24.8232 23.2258 24.868 23.324 24.8898C23.4222 24.9115 23.5241 24.9096 23.6214 24.8841C23.7186 24.8586 23.8086 24.8103 23.8839 24.7431C23.9591 24.6759 24.0176 24.5917 24.0545 24.4974C24.619 23.0553 24.8717 19.6663 24.8823 19.5229C24.89 19.4165 24.8713 19.31 24.8279 19.2128C24.7846 19.1156 24.7179 19.0308 24.634 18.966ZM23.1155 23.1439L22.7774 22.8647C22.6935 22.7956 22.5936 22.7491 22.4869 22.7296C22.3803 22.7101 22.2705 22.7183 22.1679 22.7535C22.0653 22.7886 21.9733 22.8495 21.9004 22.9304C21.8276 23.0113 21.7764 23.1096 21.7516 23.216C21.4718 24.2618 21.0507 25.2638 20.5 26.1938C19.9496 25.2642 19.5285 24.2627 19.2484 23.2175C19.2238 23.111 19.1727 23.0125 19.0999 22.9315C19.0272 22.8504 18.9351 22.7894 18.8324 22.7541C18.7298 22.7189 18.6199 22.7107 18.5132 22.7301C18.4065 22.7496 18.3065 22.7962 18.2226 22.8655L17.8845 23.1446C17.7011 22.2274 17.5646 21.3013 17.4754 20.3699C18.4603 20.6526 19.4764 20.8105 20.5 20.84C21.5237 20.8102 22.5397 20.6521 23.5246 20.3692C23.4354 21.3005 23.2988 22.2267 23.1155 23.1439Z" fill="currentColor"/>
<path d="M38.9217 2.00272C38.8453 1.85907 38.7177 1.74999 38.5647 1.6975C38.4117 1.64501 38.2447 1.65302 38.0973 1.71992C37.9499 1.78682 37.8332 1.90761 37.7707 2.05793C37.7082 2.20824 37.7046 2.37688 37.7605 2.52979C37.9407 3.02265 37.6694 4.22171 36.9783 5.22251C36.3875 6.07693 35.6516 6.56684 34.9584 6.56684C33.5445 6.56684 32.3619 5.52227 30.9929 4.31329C29.102 2.64308 26.9606 0.751077 23.5232 1.0273C22.3748 1.13427 21.3024 1.65239 20.5 2.48786C19.6976 1.65239 18.6252 1.13427 17.4768 1.0273C14.0416 0.749606 11.8973 2.64308 10.0071 4.31329C8.63815 5.52227 7.45441 6.56684 6.04165 6.56684C5.34876 6.56684 4.61248 6.07693 4.0217 5.22251C3.33064 4.22244 3.05932 3.02265 3.23947 2.52979C3.29544 2.37688 3.29181 2.20824 3.2293 2.05793C3.1668 1.90761 3.05008 1.78682 2.9027 1.71992C2.75533 1.65302 2.58828 1.64501 2.43527 1.6975C2.28227 1.74999 2.15471 1.85907 2.07834 2.00272C0.713718 4.56965 0.640054 7.47533 1.88141 9.77412C3.25078 12.3079 5.99825 13.8671 9.62205 14.165C12.6339 14.4133 17.8546 14.3022 20.5 11.0817C22.6246 13.6685 26.4107 14.2489 29.3792 14.2489C30.1085 14.2489 30.785 14.2121 31.378 14.165C35.0017 13.8671 37.7507 12.3079 39.1186 9.77412C40.3599 7.47533 40.2863 4.56965 38.9217 2.00272ZM37.9976 9.15878C36.8423 11.2983 34.4547 12.6206 31.274 12.8821C28.3322 13.1245 23.0907 13.0248 21.0448 9.64135C20.9879 9.54713 20.9078 9.46928 20.8124 9.41526C20.717 9.36124 20.6094 9.33286 20.5 9.33286C20.3906 9.33286 20.283 9.36124 20.1876 9.41526C20.0922 9.46928 20.0122 9.54713 19.9552 9.64135C17.9093 13.0252 12.6667 13.1241 9.72598 12.8821C6.54527 12.6206 4.15773 11.2983 3.00243 9.15878C2.3238 7.85993 2.10828 6.36533 2.39196 4.92532C2.55468 5.28712 2.75 5.63308 2.97545 5.95886C3.8204 7.18108 4.90823 7.85417 6.04238 7.85417C7.93615 7.85417 9.35073 6.60363 10.8485 5.28173C12.6325 3.70604 14.477 2.07445 17.3762 2.31058C17.8956 2.3655 18.3973 2.53174 18.8478 2.79816C19.2984 3.06458 19.6872 3.42503 19.9884 3.85537C20.0503 3.93224 20.1285 3.99421 20.2172 4.03677C20.3059 4.07934 20.4029 4.10142 20.5011 4.10142C20.5993 4.10142 20.6963 4.07934 20.785 4.03677C20.8737 3.99421 20.9519 3.93224 21.0138 3.85537C21.315 3.42503 21.7038 3.06458 22.1543 2.79816C22.6049 2.53174 23.1066 2.3655 23.626 2.31058C26.5183 2.07592 28.369 3.70567 30.1537 5.28173C31.6515 6.60583 33.066 7.85417 34.9598 7.85417C36.0929 7.85417 37.1818 7.18108 38.0267 5.95886C38.2522 5.63308 38.4475 5.28712 38.6102 4.92532C38.8932 6.36558 38.6769 7.86019 37.9976 9.15878Z" stroke="currentColor" stroke-width="0.8" mask="url(#path-1-outside-1_92_401)"/>
<path d="M24.634 18.966C24.5499 18.9009 24.451 18.858 24.3463 18.8411C24.2417 18.8242 24.1345 18.8339 24.0345 18.8693C22.8935 19.2615 21.7039 19.4915 20.5 19.5526C19.2961 19.4915 18.1065 19.2615 16.9656 18.8693C16.8656 18.834 16.7585 18.8243 16.6539 18.8411C16.5493 18.858 16.4505 18.9008 16.3664 18.9657C16.2823 19.0307 16.2155 19.1157 16.1721 19.2132C16.1287 19.3106 16.11 19.4174 16.1177 19.524C16.1283 19.6674 16.381 23.0549 16.9455 24.4985C16.9824 24.5928 17.0409 24.677 17.1161 24.7442C17.1914 24.8114 17.2814 24.8597 17.3786 24.8852C17.4759 24.9107 17.5778 24.9126 17.676 24.8909C17.7742 24.8692 17.8659 24.8243 17.9436 24.7601L18.2955 24.4691C18.6998 25.6353 19.2692 26.7362 19.9862 27.7378C20.0454 27.8191 20.1228 27.8852 20.2121 27.9307C20.3013 27.9763 20.4 28 20.5 28C20.6 28 20.6987 27.9763 20.7879 27.9307C20.8772 27.8852 20.9546 27.8191 21.0138 27.7378C21.7309 26.7359 22.3003 25.6345 22.7045 24.468L23.0564 24.759C23.1341 24.8232 23.2258 24.868 23.324 24.8898C23.4222 24.9115 23.5241 24.9096 23.6214 24.8841C23.7186 24.8586 23.8086 24.8103 23.8839 24.7431C23.9591 24.6759 24.0176 24.5917 24.0545 24.4974C24.619 23.0553 24.8717 19.6663 24.8823 19.5229C24.89 19.4165 24.8713 19.31 24.8279 19.2128C24.7846 19.1156 24.7179 19.0308 24.634 18.966ZM23.1155 23.1439L22.7774 22.8647C22.6935 22.7956 22.5936 22.7491 22.4869 22.7296C22.3803 22.7101 22.2705 22.7183 22.1679 22.7535C22.0653 22.7886 21.9733 22.8495 21.9004 22.9304C21.8276 23.0113 21.7764 23.1096 21.7516 23.216C21.4718 24.2618 21.0507 25.2638 20.5 26.1938C19.9496 25.2642 19.5285 24.2627 19.2484 23.2175C19.2238 23.111 19.1727 23.0125 19.0999 22.9315C19.0272 22.8504 18.9351 22.7894 18.8324 22.7541C18.7298 22.7189 18.6199 22.7107 18.5132 22.7301C18.4065 22.7496 18.3065 22.7962 18.2226 22.8655L17.8845 23.1446C17.7011 22.2274 17.5646 21.3013 17.4754 20.3699C18.4603 20.6526 19.4764 20.8105 20.5 20.84C21.5237 20.8102 22.5397 20.6521 23.5246 20.3692C23.4354 21.3005 23.2988 22.2267 23.1155 23.1439Z" stroke="currentColor" stroke-width="0.8" mask="url(#path-1-outside-1_92_401)"/>
</svg>
