<svg width="24" height="33" viewBox="0 0 24 33" fill="none" xmlns="http://www.w3.org/2000/svg">
<path d="M23.8809 11.8602C23.8809 5.32054 18.6448 0 12.2089 0C5.77294 0 0.536987 5.32054 0.536987 11.8602C0.536987 18.0815 5.27557 23.1989 11.2777 23.6826V27.3212H8.26332C7.74906 27.3212 7.33216 27.7448 7.33216 28.2674C7.33216 28.7899 7.74906 29.2135 8.26332 29.2135H11.2777V32.0538C11.2777 32.5764 11.6946 33 12.2089 33C12.7232 33 13.14 32.5764 13.14 32.0538V29.2135H16.1545C16.6687 29.2135 17.0856 28.7899 17.0856 28.2674C17.0856 27.7448 16.6687 27.3212 16.1545 27.3212H13.14V23.6826C19.1423 23.1989 23.8809 18.0815 23.8809 11.8602ZM2.3993 11.8602C2.3993 6.3639 6.79988 1.89235 12.2089 1.89235C17.6179 1.89235 22.0185 6.3639 22.0185 11.8602C22.0185 17.3565 17.6179 21.828 12.2089 21.828C6.79988 21.828 2.3993 17.3565 2.3993 11.8602Z" fill="currentColor"/>
<path d="M18.5108 11.8603C18.5108 8.32954 15.6839 5.45709 12.2092 5.45709C8.73457 5.45709 5.90771 8.32954 5.90771 11.8603C5.90771 15.391 8.73457 18.2634 12.2092 18.2634C15.6839 18.2634 18.5108 15.391 18.5108 11.8603ZM7.76996 11.8603C7.76996 9.37297 9.76137 7.34944 12.2092 7.34944C14.657 7.34944 16.6484 9.37297 16.6484 11.8603C16.6484 14.3476 14.657 16.3711 12.2092 16.3711C9.76144 16.3711 7.76996 14.3476 7.76996 11.8603Z" fill="currentColor"/>
</svg>
